<?xml version="1.0" encoding="iso-8859-1"?>
<!-- Generator: Adobe Illustrator 19.0.0, SVG Export Plug-In . SVG Version: 6.00 Build 0)  -->
<svg version="1.1" id="Layer_1" xmlns="http://www.w3.org/2000/svg" xmlns:xlink="http://www.w3.org/1999/xlink" x="0px" y="0px"
	 viewBox="0 0 512 512" style="enable-background:new 0 0 512 512;" xml:space="preserve">
<polygon style="fill:#8ED7E0;" points="406.431,449.347 106.022,449.347 122.496,400.893 389.957,400.893 "/>
<polygon style="fill:#7CC3D1;" points="122.497,400.893 106.022,449.347 151.566,449.347 163.045,400.893 "/>
<path style="fill:#8ED7E0;" d="M263.979,63.116L263.979,63.116c-82.956,0-150.204,67.248-150.204,150.204v-0.424h300.409v0.424
	C414.183,130.366,346.934,63.116,263.979,63.116z"/>
<path style="fill:#7CC3D1;" d="M262.819,63.132c-49.045,1.043-88.62,67.654-88.763,149.767h-60.281
	C114,130.523,180.539,63.748,262.819,63.132z"/>
<path style="fill:#F7A872;" d="M409.338,212.896H103.115c-51.914,0-93.999,42.084-93.999,93.999l0,0
	c0,51.913,42.084,93.999,93.999,93.999h306.223c51.913,0,93.999-42.084,93.999-93.999l0,0
	C503.337,254.981,461.252,212.896,409.338,212.896z"/>
<path style="fill:#E09461;" d="M82.004,306.895L82.004,306.895c0-51.914,42.084-93.999,93.999-93.999h-72.889
	c-51.914,0-93.999,42.084-93.999,93.999l0,0c0,51.913,42.084,93.999,93.999,93.999h72.889
	C124.09,400.893,82.004,358.809,82.004,306.895z"/>
<path style="fill:#E88158;" d="M9.119,306.9h494.221c0,51.913-42.088,93.99-94.001,93.99h-306.23
	c-25.957,0-49.46-10.525-66.456-27.521C19.632,356.348,9.119,332.857,9.119,306.9z"/>
<path style="fill:#D37250;" d="M9.117,306.895L9.117,306.895c0,51.913,42.084,93.999,93.999,93.999h72.889
	c-51.914,0-93.999-42.084-93.999-93.999l0,0H9.117z"/>
<g>
	<circle style="fill:#8ED7E0;" cx="103.78" cy="260.906" r="16.888"/>
	<circle style="fill:#8ED7E0;" cx="205.414" cy="260.906" r="16.888"/>
	<circle style="fill:#8ED7E0;" cx="408.671" cy="260.906" r="16.888"/>
	<circle style="fill:#8ED7E0;" cx="307.036" cy="260.906" r="16.888"/>
</g>
<path d="M512,306.667c0-27.483-10.703-53.32-30.137-72.754c-16.211-16.212-36.885-26.319-59.247-29.235
	c-0.832-16.008-4.035-31.667-9.567-46.659c-1.7-4.606-6.809-6.961-11.417-5.262c-4.606,1.7-6.961,6.812-5.261,11.416
	c4.699,12.735,7.51,26.018,8.39,39.604H122.748c4.812-73.596,66.209-132.003,141.001-132.003c47.018,0,90.826,23.294,117.185,62.31
	c2.747,4.069,8.272,5.137,12.342,2.391c4.069-2.749,5.138-8.274,2.391-12.342c-29.669-43.918-78.984-70.137-131.918-70.137
	c-84.597,0-153.976,66.377-158.816,149.781h-2.053C46.151,203.777,0,249.934,0,306.668c0,27.483,10.703,53.32,30.137,72.754
	c19.426,19.426,45.26,30.125,72.742,30.125h6.978l-12.481,36.707c-0.923,2.714-0.48,5.707,1.189,8.037
	c1.669,2.33,4.359,3.713,7.226,3.713h34.166c4.909,0,8.889-3.98,8.889-8.889c0-4.909-3.98-8.889-8.889-8.889h-21.753l10.429-30.674
	H383.36l10.43,30.674h-224.2c-4.909,0-8.889,3.98-8.889,8.889c0,4.909,3.98,8.889,8.889,8.889h236.612
	c2.867,0,5.558-1.383,7.228-3.713c1.67-2.33,2.111-5.324,1.189-8.037l-12.481-36.707h6.973C465.843,409.545,512,363.395,512,306.667
	z M42.709,366.85c-13.962-13.961-22.466-31.92-24.465-51.294h384.234c4.91,0,8.889-3.98,8.889-8.889s-3.979-8.889-8.889-8.889
	H18.244c4.459-42.768,40.712-76.223,84.634-76.223h306.23c22.734,0,44.108,8.854,60.183,24.929
	c13.961,13.961,22.466,31.92,24.465,51.294h-61.649c-4.91,0-8.889,3.98-8.889,8.889s3.979,8.889,8.889,8.889h61.648
	c-4.46,42.762-40.718,76.211-84.646,76.211h-306.23C80.146,391.767,58.777,382.918,42.709,366.85z"/>
<path d="M103.553,234.892c-14.215,0-25.779,11.564-25.779,25.779c0,14.215,11.564,25.778,25.779,25.778s25.778-11.563,25.778-25.778
	C129.331,246.456,117.767,234.892,103.553,234.892z M103.553,268.67c-4.411,0-8-3.589-8-7.999c0-4.411,3.589-8,8-8
	c4.41,0,7.999,3.589,7.999,8C111.552,265.081,107.964,268.67,103.553,268.67z"/>
<path d="M205.182,234.892c-14.215,0-25.779,11.564-25.779,25.779c0,14.215,11.564,25.778,25.779,25.778s25.778-11.563,25.778-25.778
	C230.959,246.456,219.396,234.892,205.182,234.892z M205.182,268.67c-4.411,0-8-3.589-8-7.999c0-4.411,3.589-8,8-8
	c4.41,0,7.999,3.589,7.999,8C213.181,265.081,209.592,268.67,205.182,268.67z"/>
<path d="M434.217,260.671c0-14.215-11.564-25.779-25.778-25.779c-14.213,0-25.778,11.564-25.778,25.779
	c0,14.215,11.564,25.778,25.778,25.778C422.653,286.449,434.217,274.884,434.217,260.671z M408.44,268.67
	c-4.411,0-7.999-3.589-7.999-7.999c0-4.411,3.588-8,7.999-8c4.411,0,7.999,3.589,7.999,8
	C416.439,265.081,412.851,268.67,408.44,268.67z"/>
<path d="M306.811,234.892c-14.215,0-25.779,11.564-25.779,25.779c0,14.215,11.564,25.778,25.779,25.778
	c14.213,0,25.778-11.563,25.778-25.778C332.589,246.456,321.026,234.892,306.811,234.892z M306.811,268.67c-4.411,0-8-3.589-8-7.999
	c0-4.411,3.589-8,8-8c4.411,0,7.999,3.589,7.999,8C314.81,265.081,311.223,268.67,306.811,268.67z"/>
<g>
</g>
<g>
</g>
<g>
</g>
<g>
</g>
<g>
</g>
<g>
</g>
<g>
</g>
<g>
</g>
<g>
</g>
<g>
</g>
<g>
</g>
<g>
</g>
<g>
</g>
<g>
</g>
<g>
</g>
</svg>
